<?xml version="1.0" encoding="utf-8"?>
<!-- Generator: Adobe Illustrator 23.0.0, SVG Export Plug-In . SVG Version: 6.00 Build 0)  -->
<svg version="1.1" id="Camada_1" xmlns="http://www.w3.org/2000/svg" xmlns:xlink="http://www.w3.org/1999/xlink" x="0px" y="0px"
	 viewBox="0 0 479.8 299.9" style="enable-background:new 0 0 479.8 299.9;" xml:space="preserve">
<style type="text/css">
	.st0{fill:#4F595F;}
	.st1{fill:#67495F;}
	.st2{fill:#81395F;}
	.st3{fill:#97285E;}
	.st4{fill:#64465C;}
	.st5{font-family:'Ubuntu-Bold';}
	.st6{font-size:44.783px;}
</style>
<g>
	<g>
		<path class="st0" d="M92,193c-12.5,0.2-22.9-4.6-31.7-13.2c-2.2-2.2-4.4-4.5-6.6-6.8c-1.8-1.8-3.2-3.8-1-6c2.3-2.3,4.4-0.9,6.3,1
			c3,3,6,6,9.2,8.8c12.5,11.1,31.3,11.9,44.8,1.9c3.7-2.7,6.3-6.4,8.6-10.3c1.4-2.4,3.1-4.7,6.1-2.8c2.7,1.7,1.8,4.1,0.4,6.5
			C120,185.8,107.9,192.8,92,193z"/>
		<path class="st1" d="M121.6,148.1c-0.1,14.1-7.9,25.1-19.9,29.7c-2.6,1-5.1,1.3-6.3-1.6c-1.2-2.9,0.6-4.6,3.3-5.5
			c15.6-5,21.6-25.8,7.5-39.5c-5.6-5.5-11.1-11-16.6-16.6c-2-2-3.9-4.2-1.1-6.6c2.3-2,4.4-0.7,6.3,1.3c6.5,6.7,13.5,12.9,19.5,20.1
			C119.2,135.1,121.4,141.8,121.6,148.1z"/>
		<path class="st2" d="M101,148.3c-0.1-3-1.1-5.6-3.3-7.7c-2.1-2-2.9-4.3-0.5-6.3c2.4-2.1,4.5-0.7,6.3,1.4
			c6.8,7.7,6.9,18.5,0.1,25.2c-7.7,7.5-17.6,7.5-25.6-0.2c-7.5-7.4-14.9-14.9-22.5-22.3c-2-2-3-4.1-0.7-6.3c2.2-2,4.2-0.7,6,1.1
			c7.4,7.4,14.7,14.7,22.1,22.1c3.3,3.3,7.3,4.3,11.7,2.5C98.8,156,101,152.5,101,148.3z"/>
		<path class="st0" d="M134.6,149.5c0,1.2,0,2.9,0,4.5c-0.1,2.1-1.1,3.4-3.3,3.4c-2.2,0-3.6-1-4-3.3c0-0.3,0-0.6,0-0.8
			c1.6-14.1-4.8-24.6-14.9-33.5c-1.2-1.1-2.4-2.3-3.5-3.5c-1.6-1.6-1.9-3.4-0.5-5.2c1.6-1.9,3.7-2,5.4-0.4
			C125.3,121.1,135.6,132.1,134.6,149.5z"/>
		<path class="st3" d="M93.3,148c-0.2,1.3-1,2.5-2.5,3.2c-2,0.9-3.4-0.1-4.7-1.5c-5.4-5.4-10.8-10.8-16.2-16.3
			c-2.6-2.6-5.2-5.2-7.8-7.8c-1.8-1.8-2.3-3.8-0.4-5.8c1.9-2,4-1.5,5.8,0.2c8.2,8.1,16.3,16.2,24.4,24.4
			C92.7,145.3,93.4,146.3,93.3,148z"/>
		<path class="st4" d="M86.8,174.6c-0.7,2.7-2.1,4.3-5,3.6c-3.5-0.9-6.8-2.4-9.5-4.7c-7.9-6.8-14.8-14.7-22.2-21.9
			c-1.7-1.6-1.6-3.5-0.1-5.1c1.8-1.8,3.6-1.4,5.4,0.4c5.5,5.6,11,11.1,16.5,16.6c3.3,3.3,6.9,6.2,11.5,7.6
			C85.3,171.5,86.3,172.8,86.8,174.6z"/>
		<path class="st2" d="M88.8,130.3c-1.9,0.1-3-1.3-4.1-2.4c-3.2-3.1-6.4-6.4-9.6-9.5c-1.9-1.9-2.5-4-0.6-6.1c2-2.2,4.3-1.5,6.2,0.3
			c3.6,3.5,7.1,7.2,10.7,10.8c1.2,1.3,1.8,2.8,1,4.5C91.7,129.5,90.4,130.2,88.8,130.3z"/>
	</g>
	<g>
		<text transform="matrix(1 0 0 1 150.512 141.5475)" class="st3 st5 st6">SMARTS</text>
		<text transform="matrix(1 0 0 1 150.512 186.3307)" class="st0 st5 st6">DASHBOARD</text>
	</g>
</g>
</svg>
